<svg xmlns="http://www.w3.org/2000/svg" id="add2f440-4f7e-4986-97ae-d9cddc8e5378" data-name="Layer 1" width="201.3228" height="168.8461" viewBox="0 0 201.3228 168.8461"><path d="M195.3937,21.7458c.6039-.1844,1.0139-.31,1.4105-.431a.6944.6944,0,0,0,.03-.111.881.881,0,0,0,.1091-.0093c.1183-.2776.2448-.5783.48-1.1307.1259.8108.0145,1.13-.48,1.1307l-.0381.0893-.1015.031c-1.3,5.0179-89.2742,97.6624-103.3625,85.513.903-36.22,4.954-47.448,6.54-54.206,32.515-20.159,81.713-46.361,81.713-46.361-2.978-2.795-80.323,43.425-80.921,43.369-.236-1.882,9.568-42.743,5.245-49.043a2.6305,2.6305,0,0,0-2.972-.236c-5.254,6.289-7.213,50.491-8.412,53.362-.681.544-23.705,15.644-25.878,16.339,1.4-9.731,2.472-19.2,4.397-28.412a1.2863,1.2863,0,0,0-1.857-.258,14.04,14.04,0,0,0-.745,1.96c-1.258,5.362-.868,4.149-4.712,28.963-.632.448-30.261,21.125-31.351,21.087-.933-9.929-.219-24.899-3.925-32.054-1.734-3.349-5.111-3.832-7.817-1.201a7.8611,7.8611,0,0,0-1.275,1.542c-8.488,14.112-10.704,39.151-12.135,50.802-7.454,5.96-8.442,6.558-9.337,8.507.699.091,1.224.16,1.639.213,3.982-3.812,5.554-5.018,7.417-5.629-.016.894.012,1.731-.052,2.562-3.391,44.217,4.605,56.404,8.619,48.433,2.109-4.186,1.928-3.857,6.91-21.521,5.394-19.122,4.809-18.093,5.792-18.637-.234,4.818-.889,9.457-.665,14.03.8.611,1.365.646,1.868-.084.292-4.058.091-8.535.948-9.386.277.731.469,1.25.671,1.765a2.4429,2.4429,0,0,0,4.613.101,60.1836,60.1836,0,0,0,2.369-8.759c1.121-.033,2.065-.062,2.846-.086,3.745-2.114,3.18-12.5,5.045-14.124,6.12-1.115,8.74-4.083,9.413-6.809-.871-.81-1.654-.916-2.291-.557-6.614,7.603-5.905,4.988-9.767,6.072-1.891,1.823-1.348,9.051-3.232,11.201-.282-1.193-.537-2.275-.782-3.311a3.0353,3.0353,0,0,0-2.667-.227c-1.123,4.41-1.438,9.118-2.899,13.57-.719-.276-.704-.893-.806-1.444-1.535-8.262-1.826-8.251-1.615-10.992,1.477-19.2.664-15.097,1.108-21.262,4.967-3.561,26.998-19.067,30.865-21.052,0,0-1.166,12.766-1.556,27.562-.599.77-.933,1.2-1.264,1.625,2.5,6.792.147,26.553,1.528,30.257a2.4176,2.4176,0,0,0,2.535-.06c.854-3.963-.672-21.405-.036-25.412,4.788-.207,6.412-4.452,8.317-8.317a5.8077,5.8077,0,0,0,4.388-1.598c3.326,1.189,4.859.748,6.715-1.972a17.5486,17.5486,0,0,0,1.659-3.007c4.463-10.544,3.887-10.334,4.52-10.377.072,1.009-.794,19.205-1.696,20.106-1.317-.895-.943-2.635-1.889-3.795-.671-.254-1.382-.558-1.938.265,1.39,36.328,1.028,48.762,2.512,50.703,1.791.312,1.199.277,2.15-.11.054-.132,1.14-37.244,2.07-41.813.292-.162.373-.245.452-.244,32.768.546,107.81-88.074,107.5079-90.392C200.4377,16.4738,195.0207,16.9028,195.3937,21.7458Zm-91.308-18.332c2.836,4.766-4.705,40.45-6.128,45.878C97.7677,40.6988,101.9107,9.8268,104.0857,3.4138Zm-73.062,115.398c-4.647,1.578-9.693,34.007-16.248,47.604-5.417-9.263-3.618-42.686-2.845-53.43a245.5768,245.5768,0,0,1,19.881-14.668C32.4557,100.9468,31.8537,107.2738,31.0237,118.8118Zm.962-23.136c-6.381,4.708-12.745,9.402-19.327,14.258-.734-2.707,3.484-38.245,12.674-49.57a4.5476,4.5476,0,0,1,1.2-.759C31.5537,61.51,32.4287,89.5268,31.9857,95.6758Zm58.094,18.041c-.275-2.202-.797-4.381-.319-7.103C90.72,108.45,90.6607,106.6878,90.08,113.7168Zm-8.21-15.75c-.897-2.013-.022-3.914-.149-5.674-.67-.834-1.391-.763-2.346-.441-.778,2.926-.867,4.91-3.16,6.868-.779-.373-.578-.742-.406-3.143-.7-.927-1.461-.922-2.465-.388-.225.795-1.484,10.744-6.643,12.245-.729-4.978.44-27.049,1.819-34.596,2.049-1.567,22.084-14.524,25.786-16.62C96.2537,66.8378,85.59,97.3438,81.87,97.9668Z" transform="translate(0.0003 -0.0001)" style="fill-rule:evenodd"></path></svg>