<svg width="213" height="78" viewBox="0 0 213 78" fill="none" xmlns="http://www.w3.org/2000/svg">
<g clip-path="url(#clip0_1083_54777)">
<path d="M43.5599 36.4518C43.7875 37.8758 44.3516 38.9069 45.2543 39.543C46.157 40.1791 47.4993 40.4982 49.2852 40.4982C50.1781 40.4982 50.9232 40.399 51.5223 40.1986C52.1215 40.0002 52.6001 39.7337 52.96 39.401C53.3199 39.0683 53.5767 38.6793 53.7284 38.2338C53.8802 37.7883 53.956 37.3175 53.956 36.8234C53.956 36.4246 53.9093 36.0394 53.814 35.6697C53.7187 35.3001 53.5339 34.9616 53.2576 34.6581C52.9814 34.3547 52.602 34.0881 52.1176 33.8605C51.6332 33.6329 51.0107 33.452 50.252 33.3197L47.688 32.8645C46.6803 32.6933 45.7893 32.4657 45.0111 32.1817C44.233 31.8957 43.5735 31.5319 43.0307 31.0845C42.4899 30.639 42.0814 30.0826 41.8051 29.4173C41.5289 28.7519 41.3927 27.9465 41.3927 26.9953C41.3927 26.044 41.5873 25.2483 41.9763 24.546C42.3654 23.8437 42.8926 23.2543 43.5579 22.7796C44.2233 22.3049 45.0111 21.9528 45.9216 21.7252C46.834 21.4976 47.8203 21.3828 48.8844 21.3828C50.2326 21.3828 51.357 21.5307 52.2597 21.8244C53.1623 22.1182 53.8977 22.5131 54.4677 23.0072C55.0377 23.5013 55.4695 24.0655 55.7633 24.7016C56.0571 25.3378 56.2808 25.9875 56.4325 26.6529L53.9833 27.1373C53.8315 26.5673 53.637 26.0595 53.3997 25.614C53.1623 25.1685 52.8491 24.797 52.46 24.5032C52.071 24.2095 51.5904 23.9857 51.0224 23.834C50.4524 23.6823 49.7598 23.6064 48.9428 23.6064C48.0129 23.6064 47.2328 23.692 46.6064 23.8632C45.9799 24.0344 45.4761 24.2678 45.0967 24.5616C44.7174 24.8573 44.447 25.2074 44.2855 25.616C44.124 26.0245 44.0443 26.4564 44.0443 26.9116C44.0443 27.4057 44.1065 27.8376 44.2291 28.2072C44.3517 28.5769 44.5618 28.8998 44.8555 29.176C45.1493 29.4523 45.5344 29.6799 46.0091 29.8589C46.4838 30.0398 47.0733 30.1954 47.7755 30.3296L50.6236 30.8432C52.7324 31.242 54.279 31.9015 55.2672 32.8236C56.2535 33.7458 56.7477 35.0978 56.7477 36.8837C56.7477 37.7007 56.5901 38.4653 56.2769 39.1773C55.9637 39.8893 55.4987 40.5118 54.882 41.0429C54.2653 41.574 53.4911 41.9923 52.5612 42.2957C51.6313 42.5992 50.538 42.7509 49.2852 42.7509C48.0323 42.7509 47.0013 42.6323 46.0227 42.3949C45.0442 42.1576 44.1941 41.7821 43.4723 41.2705C42.7506 40.7569 42.1709 40.1033 41.7351 39.3057C41.2974 38.5081 41.0328 37.5587 40.9375 36.4576H43.5579L43.5599 36.4518Z" fill="white"/>
<path d="M69.2234 40.2094C68.6924 40.8552 68.0173 41.4116 67.2002 41.8766C66.3832 42.3415 65.3677 42.575 64.1518 42.575C63.4106 42.575 62.7317 42.4855 62.115 42.3046C61.4983 42.1236 60.9653 41.8493 60.5198 41.4778C60.0723 41.1081 59.7261 40.6471 59.479 40.0965C59.2319 39.546 59.1094 38.9001 59.1094 38.1589C59.1094 37.1532 59.3234 36.3361 59.7494 35.7097C60.1774 35.0833 60.7474 34.5891 61.4594 34.2273C62.1714 33.8674 62.9729 33.6106 63.8658 33.4589C64.7588 33.3071 65.6789 33.2118 66.6283 33.1748L69.1631 33.0892V32.5193C69.1631 31.2664 68.8966 30.3638 68.3655 29.8132C67.8344 29.2627 66.9687 28.9864 65.7723 28.9864C64.5759 28.9864 63.7316 29.181 63.1811 29.57C62.6305 29.9591 62.2687 30.496 62.0994 31.1789L59.8486 30.9221C60.1151 29.5739 60.7513 28.5915 61.7571 27.9729C62.7628 27.3562 64.1304 27.0469 65.8599 27.0469C66.924 27.0469 67.8208 27.1753 68.5523 27.4321C69.2838 27.6889 69.8771 28.0546 70.3323 28.5293C70.7875 29.0039 71.1163 29.5934 71.3147 30.2957C71.5151 30.998 71.6143 31.7878 71.6143 32.6593V42.2306H69.2215V40.2074L69.2234 40.2094ZM69.167 34.8537L66.8034 34.9393C65.7957 34.9782 64.9611 35.0716 64.2958 35.2253C63.6305 35.377 63.1033 35.5813 62.7142 35.8381C62.3251 36.0949 62.0489 36.412 61.8874 36.7933C61.7259 37.1726 61.6462 37.6103 61.6462 38.1045C61.6462 38.8457 61.8699 39.439 62.3154 39.8845C62.7609 40.3319 63.4982 40.5537 64.5234 40.5537C65.9863 40.5537 67.1244 40.1938 67.9414 39.4721C68.7585 38.7503 69.167 37.7621 69.167 36.5092V34.8576V34.8537Z" fill="white"/>
<path d="M75.375 27.504H77.8242V29.7549C78.4896 28.8425 79.2191 28.1655 80.0167 27.718C80.8143 27.2725 81.6314 27.0488 82.4659 27.0488C83.567 27.0488 84.4541 27.2862 85.1292 27.7608C85.8023 28.2355 86.3022 28.9203 86.6252 29.8113C87.2905 28.8989 88.0492 28.2122 88.9032 27.7453C89.7573 27.2803 90.6696 27.0469 91.6384 27.0469C93.0819 27.0469 94.1966 27.4418 94.9865 28.2297C95.7743 29.0176 96.1692 30.2859 96.1692 32.0329V42.2306H93.6908V32.6029C93.6908 31.9376 93.6344 31.3831 93.5196 30.9357C93.4049 30.4902 93.2395 30.1381 93.0216 29.8813C92.8037 29.6245 92.5333 29.4455 92.2104 29.3405C91.8875 29.2374 91.5178 29.1829 91.0996 29.1829C90.6813 29.1829 90.2066 29.2588 89.732 29.4105C89.2573 29.5623 88.7923 29.8288 88.3371 30.2081C87.9578 30.5311 87.6446 30.9201 87.3975 31.3754C87.1504 31.8306 87.0279 32.3539 87.0279 32.9414V42.2287H84.5494V32.6282C84.5494 31.3365 84.3257 30.4396 83.8802 29.9358C83.4328 29.4319 82.7928 29.181 81.9582 29.181C80.9894 29.181 80.0789 29.5798 79.223 30.3774C78.9 30.6809 78.5907 31.0699 78.297 31.5446C78.0032 32.0193 77.8554 32.6554 77.8554 33.453V42.2267H75.3769V27.5002L75.375 27.504Z" fill="white"/>
<path d="M109.075 40.2094C108.544 40.8552 107.869 41.4116 107.052 41.8766C106.235 42.3415 105.219 42.575 104.003 42.575C103.262 42.575 102.583 42.4855 101.967 42.3046C101.35 42.1236 100.817 41.8493 100.371 41.4778C99.9239 41.1081 99.5776 40.6471 99.3306 40.0965C99.0835 39.546 98.9609 38.9001 98.9609 38.1589C98.9609 37.1532 99.1749 36.3361 99.601 35.7097C100.029 35.0833 100.599 34.5891 101.311 34.2273C102.023 33.8674 102.824 33.6106 103.717 33.4589C104.61 33.3071 105.531 33.2118 106.48 33.1748L109.015 33.0892V32.5193C109.015 31.2664 108.748 30.3638 108.217 29.8132C107.686 29.2627 106.822 28.9864 105.626 28.9864C104.429 28.9864 103.583 29.181 103.033 29.57C102.482 29.9591 102.12 30.496 101.951 31.1789L99.7002 30.9221C99.9667 29.5739 100.603 28.5915 101.609 27.9729C102.614 27.3562 103.982 27.0469 105.711 27.0469C106.776 27.0469 107.672 27.1753 108.404 27.4321C109.135 27.6889 109.729 28.0546 110.184 28.5293C110.639 29.0039 110.968 29.5934 111.166 30.2957C111.365 30.998 111.466 31.7878 111.466 32.6593V42.2306H109.073V40.2074L109.075 40.2094ZM109.019 34.8537L106.655 34.9393C105.649 34.9782 104.813 35.0716 104.147 35.2253C103.482 35.377 102.955 35.5813 102.566 35.8381C102.177 36.0949 101.9 36.412 101.739 36.7933C101.577 37.1726 101.498 37.6103 101.498 38.1045C101.498 38.8457 101.721 39.439 102.167 39.8845C102.612 40.3319 103.35 40.5537 104.375 40.5537C105.838 40.5537 106.976 40.1938 107.793 39.4721C108.61 38.7503 109.019 37.7621 109.019 36.5092V34.8576V34.8537Z" fill="white"/>
<path d="M117.742 44.5146C117.95 45.4075 118.355 46.0436 118.952 46.423C119.551 46.8023 120.485 46.993 121.757 46.993C123.313 46.993 124.393 46.5611 124.99 45.6974C125.59 44.8336 125.887 43.5749 125.887 41.9233V39.4468C125.317 40.2444 124.629 40.8611 123.821 41.2988C123.014 41.7365 122.068 41.9544 120.987 41.9544C119.905 41.9544 118.997 41.7599 118.209 41.3708C117.421 40.9817 116.769 40.4506 116.258 39.7756C115.744 39.1025 115.361 38.3185 115.104 37.4256C114.847 36.5326 114.719 35.5736 114.719 34.5483C114.719 33.4278 114.87 32.4084 115.174 31.4863C115.477 30.5661 115.915 29.7763 116.485 29.1227C117.055 28.4671 117.744 27.9593 118.551 27.5994C119.359 27.2395 120.265 27.0586 121.271 27.0586C122.088 27.0586 122.899 27.2259 123.706 27.5566C124.514 27.8893 125.249 28.5021 125.914 29.3931V27.5138H128.364V39.8476C128.364 41.1199 128.274 43.1742 128.093 44.1916C127.912 45.2071 127.58 46.0709 127.097 46.7848C126.613 47.4968 125.944 48.0435 125.09 48.4228C124.236 48.8022 123.133 48.9928 121.784 48.9928C119.847 48.9928 118.327 48.6466 117.226 47.9521C116.125 47.2595 115.479 46.1156 115.289 44.5204H117.738L117.742 44.5146ZM125.946 34.3188C125.946 33.35 125.831 32.5388 125.603 31.8832C125.376 31.2276 125.062 30.6906 124.664 30.2743C124.265 29.8561 123.804 29.5584 123.282 29.3775C122.759 29.1966 122.214 29.1071 121.644 29.1071C121.037 29.1071 120.471 29.2063 119.95 29.4067C119.427 29.6071 118.971 29.9242 118.582 30.3619C118.193 30.7996 117.89 31.3579 117.67 32.0427C117.452 32.7255 117.343 33.5523 117.343 34.5211C117.343 35.4899 117.462 36.3439 117.699 37.0287C117.936 37.7115 118.244 38.264 118.625 38.6803C119.004 39.0986 119.446 39.4021 119.95 39.5927C120.454 39.7834 120.962 39.8768 121.473 39.8768C122.119 39.8768 122.712 39.7717 123.253 39.5635C123.794 39.3554 124.265 39.0422 124.664 38.6239C125.062 38.2057 125.376 37.6804 125.603 37.0423C125.831 36.4062 125.946 35.6611 125.946 34.8071V34.3227V34.3188Z" fill="white"/>
<path d="M132.18 27.5107H134.629V29.7887C135.179 28.9717 135.825 28.3453 136.567 27.9095C137.308 27.4737 138.096 27.2539 138.93 27.2539C139.444 27.2539 139.88 27.2928 140.241 27.3687L139.928 29.6759C139.738 29.639 139.549 29.6039 139.358 29.5767C139.168 29.5475 138.959 29.5339 138.732 29.5339C138.277 29.5339 137.81 29.6156 137.335 29.7751C136.86 29.9366 136.413 30.207 135.997 30.5864C135.578 30.9482 135.251 31.3645 135.014 31.8392C134.777 32.3139 134.658 32.8644 134.658 33.4908V42.2353H132.18V27.5088V27.5107Z" fill="white"/>
<path d="M151.206 40.2094C150.675 40.8552 150 41.4116 149.183 41.8766C148.366 42.3415 147.35 42.575 146.134 42.575C145.393 42.575 144.714 42.4855 144.097 42.3046C143.481 42.1236 142.948 41.8493 142.502 41.4778C142.055 41.1081 141.708 40.6471 141.463 40.0965C141.216 39.546 141.094 38.9001 141.094 38.1589C141.094 37.1532 141.308 36.3361 141.734 35.7097C142.162 35.0833 142.73 34.5891 143.444 34.2273C144.156 33.8674 144.957 33.6106 145.85 33.4589C146.743 33.3071 147.663 33.2118 148.613 33.1748L151.148 33.0892V32.5193C151.148 31.2664 150.881 30.3638 150.35 29.8132C149.819 29.2627 148.955 28.9864 147.759 28.9864C146.562 28.9864 145.716 29.181 145.165 29.57C144.615 29.9591 144.253 30.496 144.084 31.1789L141.833 30.9221C142.1 29.5739 142.736 28.5915 143.741 27.9729C144.747 27.3562 146.115 27.0469 147.844 27.0469C148.908 27.0469 149.805 27.1753 150.537 27.4321C151.268 27.6889 151.861 28.0546 152.317 28.5293C152.772 29.0039 153.101 29.5934 153.299 30.2957C153.498 30.998 153.599 31.7878 153.599 32.6593V42.2306H151.206V40.2074V40.2094ZM151.149 34.8537L148.786 34.9393C147.78 34.9782 146.944 35.0716 146.278 35.2253C145.613 35.377 145.086 35.5813 144.697 35.8381C144.308 36.0949 144.031 36.412 143.87 36.7933C143.708 37.1726 143.629 37.6103 143.629 38.1045C143.629 38.8457 143.852 39.439 144.298 39.8845C144.743 40.3319 145.481 40.5537 146.506 40.5537C147.969 40.5537 149.107 40.1938 149.924 39.4721C150.741 38.7503 151.149 37.7621 151.149 36.5092V34.8576V34.8537Z" fill="white"/>
<path d="M44.3925 51.7823H40.9375V50.582H49.2093V51.7823H45.7543V61.0346H44.3925V51.7823Z" fill="white"/>
<path d="M48.8398 53.4643H50.0985V54.6354C50.3806 54.2152 50.7132 53.8943 51.0945 53.6686C51.4758 53.4449 51.8805 53.332 52.3104 53.332C52.573 53.332 52.7987 53.3515 52.9835 53.3904L52.822 54.5771C52.7248 54.5576 52.6275 54.5401 52.5283 54.5265C52.4291 54.5129 52.324 54.5051 52.2054 54.5051C51.9719 54.5051 51.7326 54.546 51.4875 54.6296C51.2443 54.7133 51.0148 54.8514 50.7988 55.0459C50.5848 55.2307 50.4156 55.4467 50.293 55.6898C50.1705 55.933 50.1102 56.217 50.1102 56.54V61.0338H48.8359V53.4643H48.8398Z" fill="white"/>
<path d="M58.618 59.9907C58.3437 60.3233 57.9974 60.6073 57.5792 60.8466C57.159 61.0859 56.6376 61.2046 56.0131 61.2046C55.6318 61.2046 55.2836 61.1579 54.9665 61.0645C54.6494 60.9711 54.3751 60.8311 54.1475 60.6404C53.9179 60.4498 53.739 60.2144 53.6125 59.9303C53.4861 59.6483 53.4219 59.3156 53.4219 58.9343C53.4219 58.4168 53.5308 57.9966 53.7506 57.6756C53.9705 57.3527 54.2623 57.0998 54.63 56.915C54.9957 56.7302 55.4081 56.5979 55.8672 56.5201C56.3263 56.4423 56.7991 56.3936 57.2874 56.3742L58.5908 56.3294V56.0357C58.5908 55.3918 58.4546 54.9288 58.1803 54.6447C57.906 54.3627 57.4624 54.2206 56.8477 54.2206C56.233 54.2206 55.7991 54.3199 55.5151 54.5202C55.2311 54.7206 55.0463 54.9968 54.9587 55.347L53.8012 55.2147C53.9374 54.5222 54.2642 54.0164 54.7817 53.6993C55.2992 53.3822 56.0015 53.2227 56.8905 53.2227C57.4372 53.2227 57.8982 53.2888 58.2737 53.4211C58.6491 53.5534 58.9546 53.7401 59.188 53.9852C59.4214 54.2284 59.5907 54.5319 59.6938 54.8937C59.7969 55.2556 59.8475 55.6602 59.8475 56.1096V61.0295H58.618V59.9907ZM58.5888 57.2379L57.373 57.2827C56.8555 57.3021 56.4256 57.3508 56.0851 57.4286C55.7427 57.5064 55.4723 57.6114 55.2719 57.7437C55.0716 57.876 54.9295 58.0394 54.8478 58.234C54.7642 58.4285 54.7233 58.6542 54.7233 58.9071C54.7233 59.2884 54.8381 59.5938 55.0677 59.8214C55.2972 60.051 55.6746 60.1657 56.2018 60.1657C56.9528 60.1657 57.5383 59.9809 57.9585 59.6094C58.3787 59.2378 58.5888 58.73 58.5888 58.0861V57.2379Z" fill="white"/>
<path d="M61.7851 53.4639H63.0438V54.6214C63.4154 54.1234 63.8239 53.7674 64.2733 53.5534C64.7227 53.3394 65.1954 53.2305 65.6934 53.2305C66.5513 53.2305 67.1894 53.4639 67.6038 53.9328C68.0182 54.4016 68.2263 55.0883 68.2263 55.9968V61.0334H66.9521V56.2458C66.9521 55.5435 66.8256 55.0475 66.5708 54.7595C66.3159 54.4716 65.9269 54.3277 65.3997 54.3277C65.1156 54.3277 64.8355 54.3763 64.5573 54.4736C64.2791 54.5708 64.0282 54.7284 63.8025 54.9424C63.5593 55.1564 63.3726 55.384 63.2461 55.6233C63.1197 55.8626 63.0555 56.1719 63.0555 56.5532V61.0334H61.7812V53.4639H61.7851Z" fill="white"/>
<path d="M70.9521 58.8235C71.0397 59.3507 71.2614 59.7183 71.6175 59.9284C71.9735 60.1385 72.4598 60.2436 73.0745 60.2436C73.6893 60.2436 74.1756 60.1347 74.4441 59.9148C74.7126 59.695 74.8468 59.4051 74.8468 59.0433C74.8468 58.8974 74.8293 58.7573 74.7962 58.627C74.7612 58.4947 74.6951 58.378 74.5978 58.2749C74.5005 58.1718 74.3643 58.0823 74.1873 58.0045C74.0122 57.9266 73.7827 57.8624 73.4986 57.8138L72.5318 57.6679C72.1018 57.5998 71.7264 57.5123 71.4035 57.4053C71.0805 57.2983 70.8082 57.1582 70.5844 56.987C70.3607 56.8158 70.1915 56.6057 70.0786 56.3567C69.9658 56.1077 69.9094 55.8081 69.9094 55.456C69.9094 55.1039 69.9853 54.7926 70.137 54.5183C70.2887 54.246 70.4989 54.0125 70.7673 53.8238C71.0358 53.6332 71.3529 53.4873 71.7186 53.3842C72.0843 53.2811 72.4831 53.2305 72.9111 53.2305C73.4578 53.2305 73.915 53.2849 74.2807 53.3919C74.6464 53.4989 74.946 53.6468 75.1814 53.8316C75.4148 54.0164 75.5958 54.2362 75.7222 54.4911C75.8487 54.744 75.9459 55.0124 76.016 55.2965L74.8585 55.4871C74.7904 55.2829 74.7126 55.1019 74.625 54.9444C74.5375 54.7887 74.4208 54.6584 74.2729 54.5572C74.127 54.4541 73.948 54.3763 73.7379 54.3238C73.5278 54.2713 73.2671 54.244 72.9539 54.244C72.6018 54.244 72.31 54.2751 72.0746 54.3393C71.8412 54.4035 71.6525 54.4891 71.5105 54.5961C71.3684 54.7031 71.2692 54.8237 71.2109 54.9541C71.1525 55.0864 71.1233 55.2245 71.1233 55.3704C71.1233 55.526 71.1428 55.6661 71.1817 55.7867C71.2206 55.9093 71.2945 56.0163 71.4015 56.1096C71.5085 56.203 71.6544 56.2828 71.8412 56.3509C72.026 56.419 72.2653 56.4773 72.559 56.526L73.6582 56.701C74.5453 56.8469 75.1833 57.1018 75.5685 57.4617C75.9537 57.8235 76.1463 58.3507 76.1463 59.0433C76.1463 59.3662 76.0821 59.66 75.9557 59.9284C75.8292 60.1969 75.6386 60.4323 75.3857 60.6307C75.1308 60.8311 74.8157 60.9867 74.4344 61.0996C74.0531 61.2124 73.6095 61.2688 73.1018 61.2688C72.6427 61.2688 72.2166 61.2241 71.8198 61.1365C71.4229 61.049 71.0747 60.9089 70.7732 60.7202C70.4697 60.5296 70.2265 60.2786 70.0417 59.9654C69.8569 59.6541 69.7479 59.2728 69.7188 58.8235H70.9482H70.9521Z" fill="white"/>
<path d="M78.2257 54.4704H77.0391V53.4607H78.2257V52.8012C78.2257 52.3907 78.2861 52.0406 78.4086 51.7468C78.5312 51.4531 78.6965 51.2118 78.9066 51.0212C79.1167 50.8305 79.3599 50.6885 79.6381 50.5971C79.9163 50.5037 80.212 50.457 80.5233 50.457C80.747 50.457 80.9629 50.4687 81.1672 50.494C81.3714 50.5193 81.5874 50.566 81.8111 50.6341L81.6068 51.6301C81.4512 51.5815 81.3014 51.5503 81.1594 51.5348C81.0174 51.5212 80.8793 51.5134 80.7431 51.5134C80.4007 51.5134 80.1089 51.6029 79.8638 51.7838C79.6206 51.9647 79.498 52.2935 79.498 52.772V53.4607H81.4162V54.4704H79.498V61.0302H78.2238V54.4704H78.2257Z" fill="white"/>
<path d="M85.7707 61.2688C85.1948 61.2688 84.6812 61.1754 84.2338 60.9906C83.7844 60.8058 83.4051 60.5412 83.0919 60.2008C82.7787 59.8584 82.5394 59.4401 82.374 58.9421C82.2087 58.4441 82.125 57.8877 82.125 57.273C82.125 56.6582 82.2125 56.1019 82.3876 55.6038C82.5627 55.1058 82.8117 54.6817 83.1347 54.3296C83.4576 53.9775 83.8447 53.7071 84.298 53.5164C84.7513 53.3258 85.2571 53.2305 85.8135 53.2305C86.3698 53.2305 86.8873 53.3239 87.3367 53.5087C87.7861 53.6935 88.1693 53.96 88.4864 54.3063C88.8035 54.6525 89.0447 55.0708 89.212 55.5572C89.3774 56.0454 89.4611 56.596 89.4611 57.2107C89.4611 57.8255 89.3755 58.3974 89.2043 58.8954C89.0331 59.3935 88.7899 59.8176 88.4728 60.1697C88.1557 60.5218 87.7666 60.7922 87.3095 60.9828C86.8503 61.1735 86.3387 61.2688 85.7726 61.2688H85.7707ZM85.7843 60.2164C86.1948 60.2164 86.5449 60.1424 86.8387 59.9965C87.1324 59.8506 87.3737 59.6444 87.5643 59.3818C87.755 59.1192 87.8931 58.804 87.9806 58.4383C88.0682 58.0725 88.1129 57.6698 88.1129 57.2302C88.1129 56.7905 88.0682 56.4053 87.9806 56.0435C87.8931 55.6817 87.753 55.3723 87.5643 55.1136C87.3737 54.8549 87.1324 54.6525 86.8387 54.5066C86.5449 54.3607 86.1948 54.2868 85.7843 54.2868C85.3738 54.2868 85.0256 54.3607 84.7377 54.5066C84.4497 54.6525 84.2105 54.8549 84.0198 55.1136C83.8292 55.3723 83.691 55.6817 83.6035 56.0435C83.516 56.4053 83.4712 56.8041 83.4712 57.2438C83.4712 57.6835 83.516 58.0842 83.6035 58.4441C83.691 58.806 83.8272 59.1172 84.014 59.3818C84.1988 59.6444 84.4381 59.8506 84.7318 59.9965C85.0236 60.1424 85.3757 60.2164 85.7862 60.2164H85.7843Z" fill="white"/>
<path d="M91.168 53.4643H92.4266V54.6354C92.7087 54.2152 93.0414 53.8943 93.4227 53.6686C93.804 53.4449 94.2086 53.332 94.6385 53.332C94.9011 53.332 95.1268 53.3515 95.3116 53.3904L95.1502 54.5771C95.0529 54.5576 94.9556 54.5401 94.8564 54.5265C94.7572 54.5129 94.6521 54.5051 94.5335 54.5051C94.3 54.5051 94.0607 54.546 93.8156 54.6296C93.5725 54.7133 93.3429 54.8514 93.127 55.0459C92.913 55.2307 92.7437 55.4467 92.6212 55.6898C92.4986 55.933 92.4383 56.217 92.4383 56.54V61.0338H91.1641V53.4643H91.168Z" fill="white"/>
<path d="M96.5234 53.4639H97.7821V54.6214C98.1245 54.1526 98.5 53.8044 98.9104 53.5748C99.3209 53.3452 99.7392 53.2305 100.169 53.2305C100.735 53.2305 101.192 53.353 101.539 53.5962C101.885 53.8394 102.142 54.1915 102.307 54.6506C102.649 54.1818 103.039 53.8277 103.478 53.5884C103.918 53.3491 104.387 53.2305 104.885 53.2305C105.626 53.2305 106.2 53.4328 106.604 53.8374C107.009 54.2421 107.211 54.8938 107.211 55.7925V61.0334H105.937V56.0844C105.937 55.742 105.908 55.4579 105.85 55.2284C105.791 54.9988 105.706 54.8179 105.593 54.6876C105.48 54.5553 105.342 54.4638 105.177 54.4094C105.011 54.3568 104.821 54.3296 104.607 54.3296C104.393 54.3296 104.147 54.3685 103.904 54.4463C103.661 54.5242 103.422 54.6603 103.186 54.8568C102.992 55.0222 102.83 55.2225 102.704 55.4579C102.577 55.6914 102.513 55.9598 102.513 56.2633V61.0354H101.239V56.1019C101.239 55.4385 101.124 54.9774 100.895 54.7187C100.665 54.46 100.336 54.3316 99.9065 54.3316C99.4085 54.3316 98.9396 54.5358 98.5019 54.9463C98.3365 55.1019 98.177 55.3023 98.0253 55.5474C97.8735 55.7906 97.7977 56.1174 97.7977 56.5279V61.0373H96.5234V53.4678V53.4639Z" fill="white"/>
<path d="M109.117 50.582H110.479V52.0605H109.117V50.582ZM109.162 53.4651H110.436V61.0346H109.162V53.4651Z" fill="white"/>
<path d="M112.426 53.4639H113.684V54.6214C114.056 54.1234 114.465 53.7674 114.914 53.5534C115.363 53.3394 115.836 53.2305 116.334 53.2305C117.192 53.2305 117.83 53.4639 118.244 53.9328C118.659 54.4016 118.867 55.0883 118.867 55.9968V61.0334H117.593V56.2458C117.593 55.5435 117.466 55.0475 117.211 54.7595C116.957 54.4716 116.567 54.3277 116.04 54.3277C115.756 54.3277 115.476 54.3763 115.198 54.4736C114.92 54.5708 114.669 54.7284 114.443 54.9424C114.2 55.1564 114.013 55.384 113.887 55.6233C113.76 55.8626 113.696 56.1719 113.696 56.5532V61.0334H112.422V53.4639H112.426Z" fill="white"/>
<path d="M122.054 61.7377C122.161 62.1968 122.37 62.5236 122.677 62.7181C122.984 62.9127 123.465 63.0099 124.118 63.0099C124.918 63.0099 125.472 62.7882 125.78 62.3446C126.087 61.9011 126.241 61.2532 126.241 60.4051V59.5997C125.949 60.0101 125.595 60.3272 125.179 60.551C124.764 60.7747 124.278 60.8875 123.722 60.8875C123.165 60.8875 122.698 60.7883 122.294 60.5879C121.889 60.3876 121.554 60.1152 121.292 59.7689C121.029 59.4226 120.831 59.0199 120.698 58.5608C120.566 58.1017 120.5 57.6095 120.5 57.0823C120.5 56.5065 120.578 55.9813 120.733 55.5085C120.889 55.0358 121.115 54.6292 121.407 54.2927C121.7 53.9561 122.052 53.6954 122.469 53.5087C122.883 53.3239 123.35 53.2305 123.867 53.2305C124.288 53.2305 124.704 53.3161 125.118 53.4873C125.533 53.6585 125.912 53.9736 126.253 54.4308V53.4639H127.511V59.8039C127.511 60.4576 127.464 61.0451 127.371 61.5684C127.278 62.0898 127.108 62.5353 126.859 62.901C126.61 63.2667 126.266 63.5469 125.826 63.7433C125.387 63.9379 124.821 64.0371 124.128 64.0371C123.132 64.0371 122.352 63.8581 121.786 63.5021C121.22 63.1461 120.887 62.5586 120.79 61.7377H122.049H122.054ZM126.272 56.9656C126.272 56.4676 126.214 56.0513 126.097 55.7147C125.98 55.3782 125.819 55.1019 125.614 54.8879C125.41 54.674 125.173 54.5203 124.904 54.4269C124.636 54.3335 124.356 54.2868 124.062 54.2868C123.749 54.2868 123.459 54.3374 123.19 54.4405C122.922 54.5436 122.687 54.707 122.488 54.9307C122.288 55.1545 122.132 55.4424 122.019 55.7945C121.907 56.1466 121.85 56.5707 121.85 57.0687C121.85 57.5667 121.91 58.0064 122.033 58.3566C122.156 58.7087 122.313 58.9908 122.51 59.2067C122.704 59.4207 122.932 59.5783 123.19 59.6755C123.449 59.7728 123.71 59.8214 123.974 59.8214C124.307 59.8214 124.611 59.7689 124.889 59.66C125.167 59.553 125.408 59.3915 125.614 59.1775C125.819 58.9635 125.98 58.6931 126.097 58.3643C126.214 58.0375 126.272 57.6543 126.272 57.2146V56.9656Z" fill="white"/>
<path d="M137.504 55.6604H141.412V59.8469C141.149 60.09 140.858 60.304 140.541 60.483C140.223 60.6639 139.891 60.8157 139.544 60.9363C139.198 61.0588 138.842 61.1483 138.476 61.2067C138.111 61.265 137.751 61.2942 137.401 61.2942C136.63 61.2942 135.944 61.1697 135.344 60.9207C134.745 60.6717 134.236 60.3138 133.821 59.8449C133.407 59.3761 133.092 58.8022 132.878 58.1252C132.664 57.4463 132.555 56.6778 132.555 55.8199C132.555 54.962 132.671 54.1605 132.907 53.4777C133.14 52.7948 133.465 52.219 133.879 51.7502C134.294 51.2813 134.79 50.9253 135.366 50.6821C135.942 50.439 136.572 50.3164 137.255 50.3164C137.84 50.3164 138.358 50.3864 138.807 50.5285C139.257 50.6705 139.64 50.8728 139.957 51.1354C140.274 51.398 140.535 51.7132 140.741 52.0789C140.945 52.4447 141.103 52.8532 141.21 53.3006L139.906 53.5205C139.828 53.2189 139.723 52.9407 139.591 52.6859C139.459 52.433 139.292 52.2151 139.085 52.0342C138.881 51.8533 138.628 51.7151 138.331 51.6179C138.033 51.5206 137.675 51.472 137.255 51.472C136.708 51.472 136.23 51.577 135.819 51.7871C135.409 51.9972 135.068 52.2929 134.794 52.6723C134.52 53.0536 134.313 53.5088 134.171 54.0418C134.029 54.5749 133.959 55.1624 133.959 55.8063C133.959 56.4502 134.027 57.0377 134.164 57.5708C134.3 58.1038 134.512 58.559 134.8 58.9403C135.088 59.3216 135.446 59.6134 135.875 59.8196C136.305 60.0239 136.813 60.127 137.399 60.127C137.926 60.127 138.422 60.0628 138.885 59.9363C139.348 59.8099 139.766 59.6095 140.136 59.3352V56.8315H137.5V55.6604H137.504Z" fill="white"/>
<path d="M146.622 61.2688C146.046 61.2688 145.533 61.1754 145.085 60.9906C144.636 60.8058 144.257 60.5412 143.943 60.2008C143.63 59.8584 143.391 59.4401 143.226 58.9421C143.06 58.4441 142.977 57.8877 142.977 57.273C142.977 56.6582 143.064 56.1019 143.239 55.6038C143.414 55.1058 143.663 54.6817 143.986 54.3296C144.309 53.9775 144.696 53.7071 145.15 53.5164C145.603 53.3258 146.109 53.2305 146.665 53.2305C147.221 53.2305 147.739 53.3239 148.188 53.5087C148.638 53.6935 149.021 53.96 149.338 54.3063C149.655 54.6525 149.896 55.0708 150.064 55.5572C150.229 56.0454 150.313 56.596 150.313 57.2107C150.313 57.8255 150.227 58.3974 150.056 58.8954C149.885 59.3935 149.641 59.8176 149.324 60.1697C149.007 60.5218 148.618 60.7922 148.161 60.9828C147.702 61.1735 147.19 61.2688 146.624 61.2688H146.622ZM146.638 60.2164C147.048 60.2164 147.398 60.1424 147.692 59.9965C147.984 59.8506 148.227 59.6444 148.418 59.3818C148.608 59.1192 148.747 58.804 148.834 58.4383C148.922 58.0725 148.966 57.6698 148.966 57.2302C148.966 56.7905 148.922 56.4053 148.834 56.0435C148.747 55.6817 148.607 55.3723 148.418 55.1136C148.227 54.8549 147.986 54.6525 147.692 54.5066C147.398 54.3607 147.048 54.2868 146.638 54.2868C146.227 54.2868 145.879 54.3607 145.591 54.5066C145.303 54.6525 145.064 54.8549 144.873 55.1136C144.683 55.3723 144.545 55.6817 144.457 56.0435C144.369 56.4053 144.325 56.8041 144.325 57.2438C144.325 57.6835 144.369 58.0842 144.457 58.4441C144.545 58.806 144.681 59.1172 144.867 59.3818C145.052 59.6444 145.292 59.8506 145.585 59.9965C145.877 60.1424 146.229 60.2164 146.64 60.2164H146.638Z" fill="white"/>
<path d="M150.859 53.4648H152.338L154.593 59.6142L156.892 53.4648H158.297L155.252 61.0343H153.89L150.859 53.4648Z" fill="white"/>
<path d="M165.612 58.911C165.485 59.6425 165.16 60.2183 164.639 60.6385C164.116 61.0587 163.367 61.2688 162.392 61.2688C161.24 61.2688 160.357 60.9206 159.742 60.2222C159.128 59.5238 158.82 58.5511 158.82 57.3022C158.82 56.6485 158.908 56.0668 159.083 55.5591C159.258 55.0514 159.505 54.6273 159.822 54.2849C160.139 53.9425 160.519 53.6818 160.956 53.5009C161.396 53.32 161.875 53.2305 162.39 53.2305C162.976 53.2305 163.478 53.3238 163.898 53.5087C164.318 53.6935 164.662 53.9503 164.931 54.2771C165.199 54.6039 165.4 54.993 165.532 55.4404C165.664 55.8879 165.73 56.382 165.73 56.9189V57.5628H160.108C160.108 57.9441 160.159 58.2982 160.262 58.625C160.365 58.9519 160.511 59.2359 160.702 59.4752C160.892 59.7144 161.128 59.9012 161.412 60.0393C161.694 60.1755 162.02 60.2436 162.392 60.2436C163.026 60.2436 163.491 60.1249 163.783 59.8856C164.075 59.6464 164.275 59.3215 164.382 58.9129H165.612V58.911ZM164.456 56.6116C164.456 56.2497 164.417 55.9229 164.339 55.6311C164.262 55.3393 164.139 55.0864 163.974 54.8763C163.808 54.6662 163.592 54.5028 163.33 54.386C163.067 54.2693 162.75 54.2109 162.378 54.2109C161.705 54.2109 161.18 54.4152 160.805 54.8257C160.429 55.2362 160.207 55.8315 160.139 56.6116H164.458H164.456Z" fill="white"/>
<path d="M167.41 53.4643H168.669V54.6354C168.951 54.2152 169.284 53.8943 169.665 53.6686C170.046 53.4449 170.451 53.332 170.881 53.332C171.143 53.332 171.369 53.3515 171.554 53.3904L171.392 54.5771C171.295 54.5576 171.198 54.5401 171.099 54.5265C170.999 54.5129 170.894 54.5051 170.776 54.5051C170.542 54.5051 170.303 54.546 170.058 54.6296C169.815 54.7133 169.583 54.8514 169.369 55.0459C169.155 55.2307 168.986 55.4467 168.863 55.6898C168.741 55.933 168.68 56.217 168.68 56.54V61.0338H167.406V53.4643H167.41Z" fill="white"/>
<path d="M172.777 53.4639H174.036V54.6214C174.408 54.1234 174.816 53.7674 175.265 53.5534C175.715 53.3394 176.188 53.2305 176.686 53.2305C177.545 53.2305 178.182 53.4639 178.596 53.9328C179.01 54.4016 179.219 55.0883 179.219 55.9968V61.0334H177.944V56.2458C177.944 55.5435 177.818 55.0475 177.563 54.7595C177.31 54.4716 176.919 54.3277 176.392 54.3277C176.108 54.3277 175.828 54.3763 175.55 54.4736C175.271 54.5708 175.02 54.7284 174.795 54.9424C174.552 55.1564 174.365 55.384 174.238 55.6233C174.112 55.8626 174.048 56.1719 174.048 56.5532V61.0334H172.773V53.4639H172.777Z" fill="white"/>
<path d="M185.837 59.9907C185.564 60.3233 185.216 60.6073 184.798 60.8466C184.38 61.0859 183.856 61.2046 183.232 61.2046C182.851 61.2046 182.502 61.1579 182.185 61.0645C181.868 60.9711 181.594 60.8311 181.366 60.6404C181.137 60.4498 180.958 60.2144 180.831 59.9303C180.705 59.6483 180.641 59.3156 180.641 58.9343C180.641 58.4168 180.75 57.9966 180.969 57.6756C181.189 57.3547 181.481 57.0998 181.849 56.915C182.214 56.7302 182.627 56.5979 183.086 56.5201C183.545 56.4423 184.018 56.3936 184.506 56.3742L185.81 56.3294V56.0357C185.81 55.3918 185.673 54.9288 185.399 54.6447C185.125 54.3627 184.681 54.2206 184.066 54.2206C183.452 54.2206 183.018 54.3199 182.734 54.5202C182.452 54.7206 182.265 54.9968 182.177 55.347L181.02 55.2147C181.156 54.5222 181.483 54.0164 182 53.6993C182.518 53.3822 183.22 53.2227 184.109 53.2227C184.656 53.2227 185.117 53.2888 185.492 53.4211C185.868 53.5534 186.173 53.7401 186.407 53.9852C186.64 54.2284 186.809 54.5319 186.913 54.8937C187.016 55.2556 187.066 55.6602 187.066 56.1096V61.0295H185.837V59.9907ZM185.808 57.2379L184.592 57.2827C184.074 57.3021 183.644 57.3508 183.304 57.4286C182.961 57.5064 182.691 57.6114 182.491 57.7437C182.29 57.876 182.148 58.0394 182.067 58.234C181.983 58.4285 181.942 58.6542 181.942 58.9071C181.942 59.2884 182.057 59.5938 182.286 59.8214C182.516 60.051 182.893 60.1657 183.421 60.1657C184.172 60.1657 184.757 59.9809 185.177 59.6094C185.597 59.2378 185.808 58.73 185.808 58.0861V57.2379Z" fill="white"/>
<path d="M188.996 53.4639H190.255V54.6214C190.626 54.1234 191.035 53.7674 191.484 53.5534C191.934 53.3394 192.406 53.2305 192.904 53.2305C193.764 53.2305 194.4 53.4639 194.815 53.9328C195.229 54.4016 195.437 55.0883 195.437 55.9968V61.0334H194.163V56.2458C194.163 55.5435 194.037 55.0475 193.782 54.7595C193.529 54.4716 193.138 54.3277 192.611 54.3277C192.327 54.3277 192.046 54.3763 191.768 54.4736C191.49 54.5708 191.239 54.7284 191.013 54.9424C190.77 55.1564 190.584 55.384 190.457 55.6233C190.331 55.8626 190.266 56.1719 190.266 56.5532V61.0334H188.992V53.4639H188.996Z" fill="white"/>
<path d="M203.903 58.4753C203.776 59.3449 203.443 60.0277 202.907 60.5257C202.37 61.0237 201.613 61.2727 200.636 61.2727C200.06 61.2727 199.551 61.1794 199.107 60.9945C198.664 60.8097 198.292 60.5432 197.994 60.1969C197.697 59.8507 197.471 59.4305 197.321 58.9383C197.17 58.4461 197.094 57.8917 197.094 57.2769C197.094 56.6622 197.177 56.1194 197.343 55.6233C197.508 55.1253 197.747 54.7012 198.061 54.3491C198.372 53.997 198.753 53.7246 199.203 53.5301C199.652 53.3356 200.16 53.2383 200.726 53.2383C201.634 53.2383 202.337 53.4601 202.835 53.9036C203.333 54.3472 203.65 54.96 203.786 55.7401L202.512 55.9735C202.463 55.7303 202.397 55.5047 202.313 55.3004C202.23 55.0961 202.115 54.9172 201.969 54.7654C201.823 54.6137 201.644 54.4969 201.434 54.4133C201.224 54.3296 200.973 54.2888 200.679 54.2888C200.278 54.2888 199.938 54.3647 199.654 54.5164C199.372 54.6681 199.138 54.8782 198.959 55.1467C198.778 55.4152 198.646 55.7303 198.564 56.0902C198.481 56.4521 198.44 56.8373 198.44 57.2477C198.44 57.6582 198.479 58.0434 198.557 58.4033C198.635 58.7651 198.761 59.0803 198.938 59.3468C199.113 59.6153 199.343 59.8273 199.627 59.9829C199.909 60.1386 200.257 60.2164 200.665 60.2164C201.28 60.2164 201.737 60.0608 202.035 59.7476C202.333 59.4363 202.525 59.0102 202.613 58.4733H203.901L203.903 58.4753Z" fill="white"/>
<path d="M211.924 58.911C211.798 59.6425 211.473 60.2183 210.951 60.6385C210.428 61.0587 209.679 61.2688 208.705 61.2688C207.553 61.2688 206.67 60.9206 206.055 60.2222C205.44 59.5238 205.133 58.5511 205.133 57.3022C205.133 56.6485 205.22 56.0668 205.395 55.5591C205.571 55.0514 205.818 54.6273 206.135 54.2849C206.452 53.9425 206.831 53.6818 207.269 53.5009C207.709 53.32 208.187 53.2305 208.703 53.2305C209.288 53.2305 209.79 53.3238 210.21 53.5087C210.63 53.6935 210.975 53.9503 211.243 54.2771C211.512 54.6039 211.712 54.993 211.844 55.4404C211.977 55.8898 212.043 56.382 212.043 56.9189V57.5628H206.421C206.421 57.9441 206.471 58.2982 206.574 58.625C206.677 58.9519 206.823 59.2359 207.014 59.4752C207.205 59.7144 207.44 59.9012 207.724 60.0393C208.006 60.1755 208.333 60.2436 208.705 60.2436C209.339 60.2436 209.804 60.1249 210.095 59.8856C210.387 59.6464 210.588 59.3215 210.695 58.9129H211.924V58.911ZM210.767 56.6116C210.767 56.2497 210.728 55.9229 210.65 55.6311C210.572 55.3373 210.45 55.0864 210.284 54.8763C210.119 54.6662 209.903 54.5028 209.64 54.386C209.378 54.2693 209.061 54.2109 208.689 54.2109C208.016 54.2109 207.491 54.4152 207.115 54.8257C206.74 55.2362 206.518 55.8315 206.45 56.6116H210.769H210.767Z" fill="white"/>
<path d="M32.6623 36.5115C31.7052 35.6691 30.3706 35.2061 28.9019 35.2061C28.8552 35.2061 28.5965 35.2061 28.186 35.2042C20.8519 35.1769 13.4497 35.1808 12.3602 35.1925C11.6385 35.1808 9.93824 35.1789 5.77122 35.2042C5.41522 35.2061 5.17982 35.2081 5.12146 35.2081C3.65464 35.2081 2.31816 35.6711 1.36103 36.5134C0.363045 37.3908 -0.1875 38.6475 -0.1875 40.0482C-0.1875 41.1512 0.261885 42.1978 1.077 42.9935C1.89212 43.7892 2.96792 44.2288 4.10792 44.2288C5.97938 44.2288 7.50262 42.7717 7.50262 40.98C7.50262 39.6007 6.33928 38.0561 4.78491 38.0561C3.53014 38.0561 2.63526 38.8012 2.56133 39.912C2.49908 40.838 3.07881 41.5734 4.03788 41.7835C4.4114 41.8652 4.78102 41.6298 4.86273 41.2563C4.94443 40.8828 4.70709 40.5131 4.33553 40.4314C3.92116 40.34 3.93672 40.1143 3.9445 40.0054C3.97952 39.4938 4.54563 39.4393 4.78686 39.4393C5.5047 39.4393 6.12139 40.2855 6.12139 40.9781C6.12139 42.0072 5.21873 42.8437 4.11181 42.8437C2.5341 42.8437 1.20151 41.5636 1.20151 40.0482C1.20151 37.9802 2.77727 36.5912 5.12535 36.5912C5.18372 36.5912 5.423 36.5912 5.78289 36.5873C8.49866 36.5718 10.4285 36.5659 11.5549 36.5679C11.6346 36.5893 11.7202 36.5951 11.8058 36.5854C11.8681 36.5815 12.0373 36.5776 12.3739 36.5737C12.5431 36.5757 12.654 36.5796 12.7046 36.5834C12.7902 36.5951 12.8738 36.5893 12.9536 36.5698C14.401 36.5621 22.0775 36.564 28.1801 36.5873C28.5926 36.5873 28.8532 36.5893 28.8999 36.5893C31.2461 36.5893 32.8238 37.9783 32.8238 40.0462C32.8238 41.5617 31.4912 42.8418 29.9135 42.8418C28.8046 42.8418 27.9039 42.0052 27.9039 40.9761C27.9039 40.2836 28.5206 39.4373 29.2384 39.4373C29.4797 39.4373 30.0477 39.4918 30.0808 40.0034C30.0886 40.1124 30.1041 40.338 29.6898 40.4295C29.3162 40.5112 29.0809 40.8808 29.1626 41.2543C29.2443 41.6278 29.6139 41.8632 29.9874 41.7815C30.9465 41.5714 31.5262 40.8361 31.464 39.9101C31.3881 38.7992 30.4952 38.0542 29.2404 38.0542C27.6841 38.0542 26.5227 39.5969 26.5227 40.9781C26.5227 42.7698 28.0459 44.2269 29.9174 44.2269C31.0574 44.2269 32.1332 43.7892 32.9483 42.9916C33.7634 42.1959 34.2128 41.1493 34.2128 40.0462C34.2128 38.6436 33.6622 37.3888 32.6643 36.5115H32.6623Z" fill="white"/>
<path d="M17.0496 19.7247C16.8882 19.7247 16.7578 19.5904 16.7578 19.4251V14.6355C16.7578 14.4702 16.8882 14.3359 17.0496 14.3359C17.2111 14.3359 17.3414 14.4702 17.3414 14.6355V19.4251C17.3414 19.5904 17.2111 19.7247 17.0496 19.7247Z" fill="white"/>
<path d="M24.3432 39.6468H9.68475C9.30345 39.6468 8.99219 39.3375 8.99219 38.9543C8.99219 38.571 9.3015 38.2617 9.68475 38.2617H24.3432C24.7245 38.2617 25.0358 38.571 25.0358 38.9543C25.0358 39.3375 24.7265 39.6468 24.3432 39.6468Z" fill="white"/>
<path d="M29.422 33.4906H4.61443C4.23314 33.4906 3.92188 33.1813 3.92188 32.798C3.92188 32.4148 4.23119 32.1055 4.61443 32.1055H29.422C29.8033 32.1055 30.1146 32.4148 30.1146 32.798C30.1146 33.1813 29.8053 33.4906 29.422 33.4906Z" fill="white"/>
<path d="M8.20818 61.1679C7.82689 61.1679 7.51562 60.8585 7.51562 60.4753V45.134C7.51562 44.7527 7.82494 44.4414 8.20818 44.4414C8.59142 44.4414 8.90074 44.7507 8.90074 45.134V60.4753C8.90074 60.8566 8.59142 61.1679 8.20818 61.1679Z" fill="white"/>
<path d="M25.8176 61.1679C25.4363 61.1679 25.125 60.8585 25.125 60.4753V45.134C25.125 44.7527 25.4343 44.4414 25.8176 44.4414C26.2008 44.4414 26.5101 44.7507 26.5101 45.134V60.4753C26.5101 60.8566 26.2008 61.1679 25.8176 61.1679Z" fill="white"/>
<path d="M14.0832 59.3216C13.7019 59.3216 13.3906 59.0122 13.3906 58.629V42.1574C13.3906 41.7761 13.6999 41.4648 14.0832 41.4648C14.4664 41.4648 14.7757 41.7742 14.7757 42.1574V58.629C14.7757 59.0103 14.4664 59.3216 14.0832 59.3216Z" fill="white"/>
<path d="M19.9504 59.3216C19.5691 59.3216 19.2578 59.0122 19.2578 58.629V42.1574C19.2578 41.7761 19.5671 41.4648 19.9504 41.4648C20.3336 41.4648 20.6429 41.7742 20.6429 42.1574V58.629C20.6429 59.0103 20.3336 59.3216 19.9504 59.3216Z" fill="white"/>
<path d="M22.7609 14.4377C21.1423 15.2976 20.6949 13.9883 19.6444 13.9844C18.7981 13.9806 18.5258 14.144 17.6406 14.5797V17.9433L17.7982 17.8227C19.125 16.9998 19.9206 17.5192 20.6404 17.9316C21.3602 18.3441 22.4555 17.7993 22.7609 17.562V14.4377Z" fill="white"/>
<path d="M13.9844 21.4449C14.2879 20.9079 14.9182 20.3263 14.9182 20.3263C16.0601 19.1649 17.9141 19.0598 19.1941 20.3457C19.1941 20.3457 19.7583 20.8807 20.1065 21.4449C20.0112 21.3846 19.5209 21.1686 19.5209 21.1686C17.953 20.4274 16.1185 20.443 14.5622 21.155C14.5622 21.155 14.177 21.3359 13.9844 21.4449Z" fill="white"/>
<path d="M25.028 30.4077H8.99219V29.7794C8.99219 25.1863 12.5892 21.4492 17.0091 21.4492C21.429 21.4492 25.0261 25.1863 25.0261 29.7794V30.4077H25.028ZM10.2761 29.151H23.7441C23.4386 25.5443 20.5361 22.7059 17.0091 22.7059C13.4821 22.7059 10.5796 25.5443 10.2742 29.151H10.2761Z" fill="white"/>
</g>
<defs>
<clipPath id="clip0_1083_54777">
<rect width="212.297" height="76.5257" fill="white" transform="translate(0 0.746094)"/>
</clipPath>
</defs>
</svg>
